<svg xmlns="http://www.w3.org/2000/svg" xmlns:xlink="http://www.w3.org/1999/xlink" width="220" height="96" viewBox="0 0 220 96">
  <defs>
    <clipPath id="clip-path">
      <rect id="Rectangle_144" data-name="Rectangle 144" width="220" height="96" fill="none"/>
    </clipPath>
  </defs>
  <g id="Artwork_2" data-name="Artwork 2" clip-path="url(#clip-path)">
    <path id="Path_249" data-name="Path 249" d="M317.77,118.306l-1.656.18a.178.178,0,0,1-.179-.045.181.181,0,0,1-.045-.18c.045-.225.224-.18.448-.225h.269l.179-1.08c-.224-.09-.671-.225-.627-.45a.224.224,0,0,1,.313-.135l1.522.63,1.7.72a.21.21,0,0,1-.045.4l-1.88.18m-.716-.36,1.7-.18-1.567-.675Z" transform="translate(-174.49 -64.01)" fill="#aaa1a1"/>
    <path id="Path_250" data-name="Path 250" d="M315.971,127.422c-.671-.18-1.79-.72-1.522-1.574l.179-.675a.18.18,0,0,1,.067-.146.178.178,0,0,1,.157-.034l3.268.9c.269.09.09.495,0,.765-.313,1.125-1.388.99-2.193.765m.09-.4c1.209.315,1.567,0,1.656-.4l.09-.36-1.119-.315-1.746-.45-.09.4c-.134.45.224.9,1.209,1.17" transform="translate(-173.676 -68.763)" fill="#aaa1a1"/>
    <path id="Path_251" data-name="Path 251" d="M311.328,135.054h-.045a.225.225,0,0,1,.09-.4h1.074a5.78,5.78,0,0,1,.224-.63l-.85-.315a.225.225,0,0,1,.134-.4l3.178,1.215c.179.09.134.27.045.495l-.224.54c-.313.72-1.03.495-1.522.27s-.85-.36-.985-.765h-1.074m1.477-.135h0c.09.225.448.4.671.495a1.516,1.516,0,0,0,.806.18c.224-.09.358-.495.448-.765l-1.7-.675a1.716,1.716,0,0,0-.224.765" transform="translate(-171.898 -73.337)" fill="#aaa1a1"/>
    <path id="Path_252" data-name="Path 252" d="M312.557,142.7a.179.179,0,0,1-.269.09l-3.044-1.529a.225.225,0,0,1,.179-.36l3.044,1.529a.18.18,0,0,1,.09.27" transform="translate(-170.799 -77.518)" fill="#aaa1a1"/>
    <path id="Path_253" data-name="Path 253" d="M304.958,146.9a.18.18,0,0,1-.134-.315c.09-.18.269-.09.537-.045l.269.09.537-.9c-.179-.18-.537-.45-.448-.675a.223.223,0,0,1,.358-.045l2.462,2.519a.226.226,0,0,1,.045.27.223.223,0,0,1-.224.09l-3.4-1.035m1.074-.09,1.611.495-1.209-1.215Z" transform="translate(-168.348 -79.742)" fill="#aaa1a1"/>
    <path id="Path_254" data-name="Path 254" d="M302.988,155.992a.179.179,0,0,1-.313.045l-2.686-2.069a.226.226,0,0,1-.045-.315.223.223,0,0,1,.224-.09l2.641.63-1.925-1.484a.212.212,0,1,1,.224-.36l2.686,2.069a.226.226,0,0,1,.045.315.223.223,0,0,1-.224.09l-2.641-.63,1.925,1.484a.18.18,0,0,1,.045.27" transform="translate(-165.662 -83.793)" fill="#aaa1a1"/>
    <path id="Path_255" data-name="Path 255" d="M294.412,160.388a.18.18,0,0,1-.09-.315c.134-.135.313-.045.492.09l.269.135.716-.765c-.134-.225-.448-.585-.269-.72a.223.223,0,0,1,.358.045l1.88,2.969a.226.226,0,0,1-.045.27.223.223,0,0,1-.269.045l-3.089-1.709m1.074.135,1.477.81-.9-1.439Z" transform="translate(-162.546 -87.335)" fill="#aaa1a1"/>
    <path id="Path_256" data-name="Path 256" d="M285.084,170.645l-1.3-1.035a.18.18,0,0,1,0-.315c.179-.135.313,0,.492.18l.224.18.85-.63c-.09-.27-.313-.63-.134-.765a.223.223,0,0,1,.313.09l.627,1.529.716,1.709a.226.226,0,0,1-.09.27.223.223,0,0,1-.269,0l-1.477-1.215m-.269-.765,1.3,1.08-.627-1.574Z" transform="translate(-156.71 -92.553)" fill="#aaa1a1"/>
    <path id="Path_257" data-name="Path 257" d="M278.5,173.677l-.94.54a.223.223,0,0,1-.239-.1.226.226,0,0,1,.015-.26l1.119-.675a.223.223,0,0,1,.269.09l1.746,2.924a.225.225,0,0,1-.09.27.179.179,0,0,1-.269-.09l-1.611-2.744" transform="translate(-153.173 -95.27)" fill="#aaa1a1"/>
    <path id="Path_258" data-name="Path 258" d="M271.37,178.818a.179.179,0,0,1-.269-.09.966.966,0,0,1,.4-1.439c.716-.36,1.343.4,1.746,1.26s.761,1.844-.134,2.249a.849.849,0,0,1-1.209-.45.224.224,0,0,1,.4-.18.447.447,0,0,0,.671.225c.537-.27.269-.9-.09-1.664s-.627-1.3-1.164-1.08-.4.4-.179.855a.18.18,0,0,1-.09.27" transform="translate(-149.665 -97.487)" fill="#aaa1a1"/>
    <path id="Path_259" data-name="Path 259" d="M263.022,180.493a.18.18,0,0,1,.09-.315c.179-.09.269.09.4.315l.179.225.985-.36c0-.27-.134-.72.09-.765a.224.224,0,0,1,.269.18c.134,1.439.179,2.339.313,3.509a.194.194,0,0,1-.358.135l-1.969-2.969m.9.585.94,1.395-.134-1.709Z" transform="translate(-145.256 -98.803)" fill="#aaa1a1"/>
    <path id="Path_260" data-name="Path 260" d="M255.923,186.442a.179.179,0,0,1-.269-.135l-.761-3.329a.225.225,0,0,1,.179-.27.223.223,0,0,1,.224.09l1.656,2.159-.537-2.384a.223.223,0,0,1,.4-.09l.761,3.329a.2.2,0,0,1-.358.18l-1.656-2.159.537,2.384a.18.18,0,0,1-.134.225" transform="translate(-140.798 -100.343)" fill="#aaa1a1"/>
    <path id="Path_261" data-name="Path 261" d="M246.7,188.122a.18.18,0,0,1,.134-.18l.85-.09-.4-3.239a.223.223,0,0,1,.4-.045l.4,3.239.85-.09a.181.181,0,0,1,.045.36l-2.1.27a.179.179,0,0,1-.179-.18" transform="translate(-136.275 -101.483)" fill="#aaa1a1"/>
    <path id="Path_262" data-name="Path 262" d="M238.769,185.015a.181.181,0,0,1,.005-.192.179.179,0,0,1,.174-.078c.224,0,.224.18.313.4l.09.27h1.074c.045-.27.09-.72.313-.72a.223.223,0,0,1,.176.081.226.226,0,0,1,.047.189c-.313,1.395-.537,2.294-.761,3.464a.24.24,0,0,1-.448.045l-.94-3.419m.671.855.448,1.619.4-1.664Z" transform="translate(-131.88 -101.615)" fill="#aaa1a1"/>
    <path id="Path_263" data-name="Path 263" d="M230.36,184.845h0a.223.223,0,0,1,.4,0l.269.99h.671l.09-.945a.223.223,0,0,1,.4.045l-.269,3.419c0,.18-.224.225-.448.18H230.9c-.761-.09-.761-.855-.716-1.35s.09-.945.448-1.17l-.313-1.08m.537,1.395h0c-.224.135-.269.54-.269.81a1.537,1.537,0,0,0,.09.855c.179.18.537.18.85.225l.134-1.844c-.09,0-.671-.09-.806,0" transform="translate(-127.141 -101.625)" fill="#aaa1a1"/>
    <path id="Path_264" data-name="Path 264" d="M218.883,185.98a.36.36,0,1,1,.037.283.358.358,0,0,1-.037-.283" transform="translate(-120.902 -102.175)" fill="#aaa1a1"/>
    <path id="Path_265" data-name="Path 265" d="M204.133,179.814c.269-.63.985-1.664,1.79-1.3l.627.27a.18.18,0,0,1,.134.27l-1.343,3.149c-.134.27-.492,0-.761-.09-1.074-.45-.761-1.529-.448-2.294m.4.18c-.492,1.125-.179,1.529.179,1.709l.358.135.582-1.395.582-1.35-.358-.18c-.4-.18-.9.135-1.3,1.035" transform="translate(-112.596 -98.168)" fill="#aaa1a1"/>
    <path id="Path_266" data-name="Path 266" d="M197.285,176.577l-.716-.4a.2.2,0,1,1,.179-.36l.716.4.627-1.125-.94-.54a.226.226,0,0,1-.015-.26.223.223,0,0,1,.239-.1l1.119.63a.225.225,0,0,1,.09.27l-1.656,2.969a.179.179,0,0,1-.269.09l-1.119-.63a.226.226,0,0,1-.015-.26.223.223,0,0,1,.239-.1l.94.54.627-1.125" transform="translate(-107.987 -95.831)" fill="#aaa1a1"/>
    <path id="Path_267" data-name="Path 267" d="M189.729,171.71a1.219,1.219,0,0,1,.224-.855.937.937,0,0,1,1.343-.27.81.81,0,0,1,.358,1.08.179.179,0,0,1-.269.09c-.313-.225.224-.45-.313-.81s-.582-.045-.806.225.179.945.358,1.439a1.084,1.084,0,0,1-.179.9.937.937,0,0,1-1.343.27.767.767,0,0,1-.313-1.035.179.179,0,0,1,.269-.09c.224.18-.179.4.313.765a.491.491,0,0,0,.716-.18c.358-.54-.269-.99-.358-1.619" transform="translate(-104.236 -93.753)" fill="#aaa1a1"/>
    <path id="Path_268" data-name="Path 268" d="M182.774,166.309c.448-.54,1.432-1.26,2.1-.675l.537.45a.18.18,0,0,1,.045.27l-2.238,2.564c-.179.225-.492-.135-.716-.315a2.591,2.591,0,0,1,.269-2.294m.313.27c-.806.945-.671,1.395-.358,1.664l.269.27.761-.9,1.164-1.395-.313-.27c-.358-.315-.9-.18-1.567.585" transform="translate(-100.728 -91.006)" fill="#aaa1a1"/>
    <path id="Path_269" data-name="Path 269" d="M176.5,161.075l-.537-.585a.226.226,0,0,1,.067-.24.223.223,0,0,1,.246-.03l.537.585.94-.855-.761-.81a.208.208,0,1,1,.269-.315l.9.945a.18.18,0,0,1,0,.315l-2.462,2.339a.223.223,0,0,1-.313,0l-.9-.945a.208.208,0,1,1,.269-.315l.761.81.94-.9" transform="translate(-96.333 -87.346)" fill="#aaa1a1"/>
    <path id="Path_270" data-name="Path 270" d="M169.29,149.178l-.806-1.26a.18.18,0,0,1,.09-.27.179.179,0,0,1,.269.045l.94,1.439a.2.2,0,0,1-.09.315,1.248,1.248,0,0,1-.985.18c-.716-.18-1.388-.765-1.969-.4s-.537.63-.313.99a.678.678,0,0,0,.761.27.179.179,0,0,1,.269.045.18.18,0,0,1-.045.27.937.937,0,0,1-1.3-.315,1.057,1.057,0,0,1,.4-1.619,1.248,1.248,0,0,1,1.209-.09c.492.18.985.585,1.567.36" transform="translate(-91.629 -81.207)" fill="#aaa1a1"/>
    <path id="Path_271" data-name="Path 271" d="M162.606,140.845c.716-.36,1.79-.72,2.283.27s-.448,1.664-1.209,2.024-1.79.63-2.238-.27.358-1.619,1.164-2.024m.313.315c-.537.27-1.432.765-1.074,1.529s.985.4,1.656.09,1.388-.72.985-1.484-1.074-.36-1.567-.09" transform="translate(-89.108 -77.283)" fill="#aaa1a1"/>
    <path id="Path_272" data-name="Path 272" d="M158.891,132.023c.761-.27,1.88-.495,2.238.54s-.627,1.574-1.432,1.889-1.835.4-2.193-.54.582-1.574,1.388-1.844m.269.36c-.582.225-1.477.63-1.209,1.395s.94.54,1.611.27,1.432-.54,1.119-1.35-1.029-.495-1.567-.27" transform="translate(-86.96 -72.509)" fill="#aaa1a1"/>
    <path id="Path_273" data-name="Path 273" d="M154.82,124.789l3.223-.81a.231.231,0,0,1,.313.135.2.2,0,0,1-.179.27l-.671.18.358,1.35c.045.18-.09.225-.179.27l-2.865-.99a.224.224,0,0,1-.134-.135c-.045-.18.045-.27.179-.27m2.238-.135-1.477.36,1.7.585-.224-.945" transform="translate(-85.44 -68.199)" fill="#aaa1a1"/>
    <path id="Path_274" data-name="Path 274" d="M151.972,81.332a.268.268,0,0,1,.4-.18c1.477.765,2.641,1.439,4.208,2.339a.278.278,0,0,1-.134.54h-4.879a.315.315,0,0,1-.179-.36.269.269,0,0,1,.269-.225h3.715l-3.268-1.8a.27.27,0,0,1-.134-.315" transform="translate(-83.622 -44.625)" fill="#aaa1a1"/>
    <path id="Path_275" data-name="Path 275" d="M155.469,73.257a.268.268,0,0,1,.358-.18l4.342,1.754a.292.292,0,0,1-.224.54L155.6,73.617a.27.27,0,0,1-.134-.36" transform="translate(-85.866 -40.194)" fill="#aaa1a1"/>
    <path id="Path_276" data-name="Path 276" d="M160.779,60.179a.268.268,0,0,1,.4-.135l4.028,2.294a.316.316,0,0,1,.09.4.268.268,0,0,1-.313.135l-3.715-.315,2.909,1.664a.283.283,0,0,1,.112.382.28.28,0,0,1-.38.112l-4.028-2.294a.315.315,0,0,1,.224-.54l3.715.36-2.909-1.664a.271.271,0,0,1-.09-.4" transform="translate(-88.266 -33.009)" fill="#aaa1a1"/>
    <path id="Path_277" data-name="Path 277" d="M169.029,47.859a.226.226,0,0,1,.045.36l-.716.9,3.491,2.789a.289.289,0,0,1,.045.4.286.286,0,0,1-.4.045L168,49.568l-.716.9a.267.267,0,0,1-.315-.011.271.271,0,0,1-.088-.3l1.835-2.294a.223.223,0,0,1,.358-.045" transform="translate(-92.175 -26.267)" fill="#aaa1a1"/>
    <path id="Path_278" data-name="Path 278" d="M181.675,43.739a.271.271,0,0,1,.09.45c-.224.18-.4.045-.716-.18l-.313-.225-1.074.99c.179.315.537.81.313,1.035a.268.268,0,0,1-.448-.09c-.985-1.709-1.522-2.834-2.372-4.273a.316.316,0,0,1,.045-.36.268.268,0,0,1,.358-.045l4.118,2.654m-1.477-.27-1.969-1.26,1.119,2.069Z" transform="translate(-97.838 -22.552)" fill="#aaa1a1"/>
    <path id="Path_279" data-name="Path 279" d="M189.874,33.847c.627.945,1.477,2.114.4,2.879s-1.79-.135-2.6-1.35-1.567-2.2-.358-3.059a1.205,1.205,0,0,1,1.746.36.271.271,0,0,1-.09.4.268.268,0,0,1-.4-.09.625.625,0,0,0-.94-.225c-.761.54-.09,1.394.492,2.249s1.074,1.664,1.79,1.17.134-1.125-.358-1.844l-.269.18c-.224.18-.4.225-.582.045s-.045-.36.224-.54l.537-.36a.312.312,0,0,1,.4.09" transform="translate(-103.127 -17.653)" fill="#aaa1a1"/>
    <path id="Path_280" data-name="Path 280" d="M198.921,27.695l.985-.495a.268.268,0,0,1,.358.135.27.27,0,0,1-.134.36l-.985.495.761,1.574,1.343-.675a.3.3,0,0,1,.269.54l-1.611.765a.268.268,0,0,1-.4-.135l-2.059-4.228a.27.27,0,0,1,.134-.4l1.611-.765a.3.3,0,0,1,.269.54l-1.343.675.761,1.574" transform="translate(-109.041 -13.66)" fill="#aaa1a1"/>
    <path id="Path_281" data-name="Path 281" d="M219.319,18.98a.269.269,0,0,1,.358.225l.492,2.339.492,2.249a.3.3,0,1,1-.582.135l-.492-2.249-.492-2.339a.27.27,0,0,1,.224-.315" transform="translate(-121.023 -10.434)" fill="#aaa1a1"/>
    <path id="Path_282" data-name="Path 282" d="M231.172,17a.268.268,0,0,1,.22.061.27.27,0,0,1,.094.209l.358,4.678a.314.314,0,0,1-.269.315.268.268,0,0,1-.313-.18l-1.79-3.284.269,3.329a.292.292,0,1,1-.582.045L228.8,17.49a.313.313,0,0,1,.582-.135l1.835,3.284-.269-3.329a.271.271,0,0,1,.061-.221.268.268,0,0,1,.208-.094" transform="translate(-126.387 -9.348)" fill="#aaa1a1"/>
    <path id="Path_283" data-name="Path 283" d="M244.882,17.18a.268.268,0,0,1,.23.108.271.271,0,0,1,.038.252c-.492,1.574-.94,2.879-1.522,4.588a.292.292,0,1,1-.582-.045l-.85-4.768a.273.273,0,0,1,.313-.315.269.269,0,0,1,.269.225l.671,3.689,1.164-3.554a.269.269,0,0,1,.269-.18" transform="translate(-133.785 -9.352)" fill="#aaa1a1"/>
    <path id="Path_284" data-name="Path 284" d="M255.189,18.695a.27.27,0,0,1,.224.315l-.94,4.633a.3.3,0,1,1-.582-.135l.94-4.588a.269.269,0,0,1,.313-.225" transform="translate(-140.242 -10.283)" fill="#aaa1a1"/>
    <path id="Path_285" data-name="Path 285" d="M267.384,21.957a.223.223,0,0,1-.313.135l-1.119-.36-1.432,4.228a.283.283,0,1,1-.537-.18l1.432-4.228-1.119-.36a.27.27,0,0,1,.179-.495l2.775.945a.225.225,0,0,1,.134.315" transform="translate(-145.813 -11.386)" fill="#aaa1a1"/>
    <path id="Path_286" data-name="Path 286" d="M274.373,31.693a.269.269,0,0,1-.4.225c-.269-.135-.179-.36-.09-.72l.09-.4-1.3-.675c-.269.27-.582.81-.85.675a.271.271,0,0,1-.045-.45c1.253-1.484,2.148-2.429,3.178-3.644a.312.312,0,0,1,.358-.045.27.27,0,0,1,.134.315c-.313,1.439-.761,3.239-1.074,4.768m-.269-1.484.492-2.294-1.567,1.754Z" transform="translate(-150.071 -14.644)" fill="#aaa1a1"/>
    <path id="Path_287" data-name="Path 287" d="M285.887,36.958a.271.271,0,0,1,.09.4c-.448.585-1.074,1.125-1.969.495s-.4-1.889.358-2.924,1.7-2.114,2.73-1.35a1.218,1.218,0,0,1,.313,1.754.312.312,0,0,1-.387.014.316.316,0,0,1-.106-.374.586.586,0,0,0-.179-.945c-.671-.495-1.253.27-1.925,1.215s-1.164,1.619-.492,2.114.761.18,1.164-.36a.268.268,0,0,1,.4-.045" transform="translate(-156.617 -18.335)" fill="#aaa1a1"/>
    <path id="Path_288" data-name="Path 288" d="M295.578,40.788a.271.271,0,0,1,.045.4L292.4,44.657a.284.284,0,0,1-.4,0,.287.287,0,0,1,0-.4l3.178-3.464a.268.268,0,0,1,.4,0" transform="translate(-161.25 -22.39)" fill="#aaa1a1"/>
    <path id="Path_289" data-name="Path 289" d="M302.7,48.727c.9,1.08-.269,2.114-1.119,2.834s-2.059,1.709-3,.585.269-2.114,1.074-2.789,2.1-1.709,3-.63m-1.477,2.384c.492-.4,1.656-1.26,1.029-2.024s-1.611.18-2.238.72-1.477,1.3-.985,1.934,1.611-.18,2.148-.675" transform="translate(-164.742 -26.55)" fill="#aaa1a1"/>
    <path id="Path_290" data-name="Path 290" d="M310.626,60.821a.271.271,0,0,1-.09.4l-4.029,2.384a.312.312,0,0,1-.4-.09.271.271,0,0,1,.045-.36L308.3,60.1l-2.865,1.664a.268.268,0,0,1-.4-.09.271.271,0,0,1,.09-.4l4.029-2.384a.312.312,0,0,1,.325.108.316.316,0,0,1,.033.342l-2.149,3.1,2.865-1.709a.268.268,0,0,1,.4.09" transform="translate(-168.465 -32.392)" fill="#aaa1a1"/>
    <path id="Path_291" data-name="Path 291" d="M313.852,73.236l.4,1.035a.291.291,0,1,1-.537.225l-.4-1.035-1.611.63.537,1.394a.291.291,0,1,1-.537.225l-.627-1.664a.27.27,0,0,1,.179-.36l4.342-1.709a.268.268,0,0,1,.358.18l.671,1.664a.27.27,0,0,1-.179.36.268.268,0,0,1-.358-.135l-.582-1.484-1.656.63" transform="translate(-171.825 -39.588)" fill="#aaa1a1"/>
    <path id="Path_292" data-name="Path 292" d="M317.526,86.608a1.656,1.656,0,0,1-.985.675,1.3,1.3,0,0,1-1.611-.99c-.224-.9.269-1.35.582-1.439a.268.268,0,0,1,.358.18c.134.495-.627.225-.4,1.125s.582.585,1.03.495.716-1.17.985-1.8a1.478,1.478,0,0,1,1.029-.81,1.3,1.3,0,0,1,1.611.99,1.071,1.071,0,0,1-.627,1.35.268.268,0,0,1-.358-.18c-.09-.4.582-.225.4-1.08a.671.671,0,0,0-.9-.495c-.85.18-.671,1.26-1.119,1.934" transform="translate(-173.933 -46.212)" fill="#aaa1a1"/>
    <path id="Path_293" data-name="Path 293" d="M132.971,49.335a.673.673,0,0,1-.671-.675v-.585A47.746,47.746,0,0,1,227.417,42a.677.677,0,1,1-1.343.18A46.4,46.4,0,0,0,133.6,48.12v.54a.673.673,0,0,1-.671.675Z" transform="translate(-73.081 -0.122)" fill="#aaa1a1"/>
    <path id="Path_294" data-name="Path 294" d="M180.659,154.423a47.838,47.838,0,0,1-47.269-41.078.677.677,0,1,1,1.344-.172,46.4,46.4,0,0,0,92.342-6.3.673.673,0,0,1,.671-.675h0a.673.673,0,0,1,.671.675,47.877,47.877,0,0,1-47.76,47.548" transform="translate(-73.681 -58.427)" fill="#aaa1a1"/>
    <path id="Path_295" data-name="Path 295" d="M202.911,138.953a29.592,29.592,0,0,1-29.318-26.085.677.677,0,1,1,1.342-.186,28.185,28.185,0,0,0,56.085-.63.675.675,0,1,1,1.343.135,29.508,29.508,0,0,1-29.408,26.765" transform="translate(-95.888 -61.311)" fill="#aaa1a1"/>
    <path id="Path_296" data-name="Path 296" d="M231.54,67.729a.673.673,0,0,1-.671-.63,28.186,28.186,0,0,0-56.13-.135.675.675,0,1,1-1.343-.135,29.529,29.529,0,0,1,58.816.135.674.674,0,0,1-.582.72h-.045" transform="translate(-95.78 -22.025)" fill="#aaa1a1"/>
    <path id="Path_297" data-name="Path 297" d="M106.655,88.039c3.894,4,2.73,9.267-1.7,13.135-2.775,2.429-6.446,3.329-7.967,2.339s-.448-3.6.358-5.128l3.223-5.848c-6.714.225-12.936,1.709-19.605,2.969-17.681,3.374-35.54,8.187-53.579,9-8.773.4-27.259.9-27.483-11.921,0-.9,1.969-1.17,2.014-.135.09,6.433,6,9,11.5,9.986,7.3,1.3,14.905.765,22.246.045,8.818-.855,17.367-2.744,26.051-4.318s15.666-3.329,23.768-4.813c5.416-.99,10.429-2.249,15.935-2.294,1.164,0,2.686.765,1.388,3.149l-3.984,7.242c-.179.315-1.074,1.979-.045,1.979,2.059,0,5.237-3.374,6.893-6.838s1.746-6.658.627-8.367c-.224-.4.179-.315.358-.135m10.429.765a2.061,2.061,0,0,0,2.014-1.529,1.354,1.354,0,0,0-.366-1.128,1.339,1.339,0,0,0-1.111-.4,2.191,2.191,0,0,0-2.059,1.529,1.411,1.411,0,0,0,1.522,1.529M219.05,99.42a10.111,10.111,0,0,0-2.462-3.014,15.839,15.839,0,0,0-3.133-2.069A27.234,27.234,0,0,0,210.1,92.9a62.775,62.775,0,0,0-14.055-2.789,136.519,136.519,0,0,0-14.234-.585c-4.745.045-9.445.27-14.189.63a238.092,238.092,0,0,0-28.11,3.824c-4.655.945-9.266,2.024-13.786,3.374-2.283.675-4.521,1.394-6.714,2.249a43.765,43.765,0,0,0-6.4,3.014,3.837,3.837,0,0,1-1.3.45c-.448,0-.492-.45.224-1.709l3.939-7.2c1.3-2.384-.224-3.194-1.388-3.194L109.7,98.925c-1.925,3.464-.806,4.9.4,4.9a5.486,5.486,0,0,0,2.6-.765h.09a43.222,43.222,0,0,1,6.4-2.879c2.193-.81,4.476-1.529,6.714-2.159,4.521-1.26,9.131-2.294,13.786-3.149a237.043,237.043,0,0,1,28.02-3.464c4.7-.315,9.4-.45,14.1-.45a135.047,135.047,0,0,1,14.055.72,59.558,59.558,0,0,1,13.607,2.879,25.271,25.271,0,0,1,3.133,1.395,14.049,14.049,0,0,1,2.775,1.844,8.225,8.225,0,0,1,1.969,2.474,6.233,6.233,0,0,1,.671,2.969h0a.992.992,0,0,0,.387,1.038.981.981,0,0,0,1.1.026.992.992,0,0,0,.435-1.019,8.175,8.175,0,0,0-.9-3.869" transform="translate(0.055 -47.194)" fill="#aaa1a1"/>
  </g>
</svg>
