<svg xmlns="http://www.w3.org/2000/svg" xmlns:xlink="http://www.w3.org/1999/xlink" width="235" height="72" viewBox="0 0 235 72">
  <defs>
    <clipPath id="clip-path">
      <rect id="Rectangle_146" data-name="Rectangle 146" width="235" height="72" fill="none"/>
    </clipPath>
  </defs>
  <g id="Group_101" data-name="Group 101" clip-path="url(#clip-path)">
    <path id="Path_347" data-name="Path 347" d="M216.66,141.986l.621,2.469a.283.283,0,0,1-.008.3.287.287,0,0,1-.279.124c-.334,0-.334-.285-.43-.665l-.1-.427H214.8c-.1.38-.191,1.092-.526,1.092a.335.335,0,0,1-.245-.146.331.331,0,0,1-.042-.281l.621-2.517.717-2.8a.354.354,0,0,1,.669,0l.717,2.849m-.382,1.14-.669-2.564-.669,2.564Z" transform="translate(-111.727 -72.944)" fill="gray"/>
    <path id="Path_348" data-name="Path 348" d="M228.4,142.082c0,1.092-.382,2.944-1.768,2.944h-1.1a.288.288,0,0,1-.234-.065.284.284,0,0,1-.1-.22v-5.318c0-.427.717-.332,1.147-.332,1.816,0,2.055,1.662,2.055,2.944m-.669,0c0-1.9-.669-2.327-1.29-2.327h-.573v4.606h.669c.717,0,1.242-.712,1.242-2.279" transform="translate(-117.591 -73.04)" fill="gray"/>
    <path id="Path_349" data-name="Path 349" d="M239.163,144.608a.331.331,0,0,1-.056.3.359.359,0,0,1-.613-.109l-.573-1.52h-1.051V144.7a.334.334,0,0,1-.669,0v-5.271c0-.285.335-.332.669-.332h.908c1.195.095,1.242,1.235,1.242,2.042s0,1.425-.526,1.852l.573,1.614m-1-2.089h0c.335-.237.335-.855.335-1.235a2.314,2.314,0,0,0-.239-1.282c-.287-.285-.86-.237-1.338-.237v2.849c.1,0,1.051.095,1.242-.095" transform="translate(-123.335 -73.05)" fill="gray"/>
    <path id="Path_350" data-name="Path 350" d="M247.329,139.095a.288.288,0,0,1,.255.079.284.284,0,0,1,.079.254V144.7a.334.334,0,0,1-.669,0v-5.271a.284.284,0,0,1,.079-.254.288.288,0,0,1,.255-.079" transform="translate(-128.969 -73.044)" fill="gray"/>
    <path id="Path_351" data-name="Path 351" d="M255.008,141.986l.621,2.469a.283.283,0,0,1-.008.3.288.288,0,0,1-.279.124c-.334,0-.334-.285-.43-.665l-.1-.427H253.1c-.1.38-.191,1.092-.526,1.092a.335.335,0,0,1-.245-.146.331.331,0,0,1-.042-.281l.621-2.517.717-2.8a.354.354,0,0,1,.669,0l.717,2.849m-.382,1.14-.669-2.564-.669,2.564Z" transform="translate(-131.726 -72.944)" fill="gray"/>
    <path id="Path_352" data-name="Path 352" d="M266.32,139.144a.288.288,0,0,1,.255.079.283.283,0,0,1,.079.254V144.7a.343.343,0,0,1-.669.095l-1.72-3.846V144.7a.334.334,0,0,1-.669,0v-5.223a.338.338,0,0,1,.669-.095l1.768,3.846v-3.751a.283.283,0,0,1,.079-.254.288.288,0,0,1,.255-.079" transform="translate(-137.639 -73.046)" fill="gray"/>
    <path id="Path_353" data-name="Path 353" d="M276.56,141.986l.621,2.469a.284.284,0,0,1-.008.3.288.288,0,0,1-.279.124c-.334,0-.334-.285-.43-.665l-.1-.427H274.7c-.1.38-.191,1.092-.526,1.092a.335.335,0,0,1-.245-.146.33.33,0,0,1-.042-.281l.621-2.517.717-2.8a.354.354,0,0,1,.669,0l.717,2.849m-.382,1.14-.669-2.564-.669,2.564Z" transform="translate(-143.005 -72.944)" fill="gray"/>
    <path id="Path_354" data-name="Path 354" d="M293.56,141.986l.621,2.469a.283.283,0,0,1-.008.3.287.287,0,0,1-.279.124c-.335,0-.335-.285-.43-.665l-.1-.427H291.7c-.1.38-.191,1.092-.526,1.092a.335.335,0,0,1-.245-.146.331.331,0,0,1-.042-.281l.621-2.517.717-2.8a.354.354,0,0,1,.669,0l.717,2.849m-.382,1.14-.669-2.564-.669,2.564Z" transform="translate(-151.882 -72.944)" fill="gray"/>
    <path id="Path_355" data-name="Path 355" d="M302.769,144.318h1.672a.288.288,0,0,1,.255.079.284.284,0,0,1,.079.254.333.333,0,0,1-.334.332h-2.007a.333.333,0,0,1-.334-.332v-5.223a.333.333,0,0,1,.334-.332.288.288,0,0,1,.255.079.283.283,0,0,1,.079.254Z" transform="translate(-157.746 -73.044)" fill="gray"/>
    <path id="Path_356" data-name="Path 356" d="M313.724,142.942a.288.288,0,0,1,.255.079.284.284,0,0,1,.079.254c0,.855-.287,1.757-1.481,1.757s-1.577-1.472-1.577-2.9.191-3.039,1.625-3.039a1.343,1.343,0,0,1,1.045.386,1.325,1.325,0,0,1,.388,1.039.334.334,0,0,1-.669,0,.678.678,0,0,0-.765-.76c-.573,0-.956,1.045-.956,2.374s0,2.232.908,2.232.86-.332.86-1.092a.333.333,0,0,1,.334-.332" transform="translate(-162.393 -73.046)" fill="gray"/>
    <path id="Path_357" data-name="Path 357" d="M323.56,141.986l.621,2.469a.283.283,0,0,1-.008.3.287.287,0,0,1-.279.124c-.334,0-.334-.285-.43-.665l-.1-.427H321.7c-.1.38-.191,1.092-.526,1.092a.335.335,0,0,1-.245-.146.331.331,0,0,1-.042-.281l.621-2.517.717-2.8a.354.354,0,0,1,.669,0l.717,2.849m-.382,1.14-.669-2.564-.669,2.564Z" transform="translate(-167.546 -72.944)" fill="gray"/>
    <path id="Path_358" data-name="Path 358" d="M334.768,139.144a.288.288,0,0,1,.255.079.284.284,0,0,1,.079.254V144.7a.343.343,0,0,1-.669.095l-1.768-3.846V144.7a.334.334,0,0,1-.669,0v-5.223a.338.338,0,0,1,.669-.095l1.768,3.846v-3.751a.284.284,0,0,1,.079-.254.288.288,0,0,1,.255-.079" transform="translate(-173.355 -73.046)" fill="gray"/>
    <path id="Path_359" data-name="Path 359" d="M345.832,139.1a.285.285,0,1,1,0,.57h-1.338V144.7a.334.334,0,0,1-.669,0V139.67h-1.338a.285.285,0,1,1,0-.57Z" transform="translate(-178.684 -73.05)" fill="gray"/>
    <path id="Path_360" data-name="Path 360" d="M354.96,141.986l.621,2.469a.284.284,0,0,1-.008.3.288.288,0,0,1-.279.124c-.334,0-.334-.285-.43-.665l-.1-.427H353.1c-.1.38-.191,1.092-.526,1.092a.335.335,0,0,1-.245-.146.331.331,0,0,1-.042-.281l.621-2.517.717-2.8a.354.354,0,0,1,.669,0l.717,2.849m-.382,1.14-.669-2.564-.669,2.564Z" transform="translate(-183.942 -72.944)" fill="gray"/>
    <path id="Path_361" data-name="Path 361" d="M366.363,144.608a.331.331,0,0,1-.056.3.359.359,0,0,1-.612-.109l-.573-1.52h-1.051V144.7a.335.335,0,0,1-.669,0v-5.271c0-.285.335-.332.669-.332h.908c1.195.095,1.242,1.235,1.242,2.042s0,1.425-.526,1.852l.573,1.614m-1-2.089h0c.335-.237.335-.855.335-1.235a2.315,2.315,0,0,0-.239-1.282c-.287-.285-.86-.237-1.338-.237v2.849c.1,0,1.051.095,1.242-.095" transform="translate(-189.754 -73.05)" fill="gray"/>
    <path id="Path_362" data-name="Path 362" d="M381.447,145.07a.573.573,0,1,1-.573-.57.572.572,0,0,1,.573.57" transform="translate(-198.579 -75.886)" fill="gray"/>
    <path id="Path_363" data-name="Path 363" d="M397.2,142.082c0,1.092-.382,2.944-1.768,2.944h-1.1a.288.288,0,0,1-.234-.065.284.284,0,0,1-.1-.22v-5.318c0-.427.717-.332,1.147-.332,1.816,0,2.055,1.662,2.055,2.944m-.669,0c0-1.9-.669-2.327-1.29-2.327h-.573v4.606h.621c.717,0,1.242-.712,1.242-2.279" transform="translate(-205.732 -73.04)" fill="gray"/>
    <path id="Path_364" data-name="Path 364" d="M405.721,141.712h1.242a.332.332,0,1,1,0,.665h-1.242v1.947h1.72a.332.332,0,1,1,0,.665h-2.007a.333.333,0,0,1-.335-.332v-5.223a.334.334,0,0,1,.335-.332h2.007a.332.332,0,1,1,0,.665h-1.672Z" transform="translate(-211.528 -73.05)" fill="gray"/>
    <path id="Path_365" data-name="Path 365" d="M416.832,142.176a1.845,1.845,0,0,1,.478,1.235,1.466,1.466,0,0,1-.4,1.1,1.486,1.486,0,0,1-1.083.464c-1,0-1.433-.617-1.433-1a.284.284,0,0,1,.065-.233.287.287,0,0,1,.222-.1c.573,0,.1.712,1.147.712s.765-.475.812-1.045-1.1-1.045-1.72-1.567a1.658,1.658,0,0,1-.621-1.33,1.467,1.467,0,0,1,.417-1.072,1.486,1.486,0,0,1,1.065-.448c.669,0,1.338.38,1.338,1a.333.333,0,0,1-.287.332c-.478,0-.1-.712-1.051-.712a.767.767,0,0,0-.61.236.757.757,0,0,0-.2.619c0,1,1.195,1.045,1.864,1.709" transform="translate(-216.331 -72.945)" fill="gray"/>
    <path id="Path_366" data-name="Path 366" d="M428.2,142.082c0,1.092-.382,2.944-1.768,2.944h-1.1a.288.288,0,0,1-.234-.065.284.284,0,0,1-.1-.22v-5.318c0-.427.717-.332,1.147-.332,1.816,0,2.055,1.662,2.055,2.944m-.669,0c0-1.9-.669-2.327-1.29-2.327h-.573v4.606h.621c.717,0,1.242-.712,1.242-2.279" transform="translate(-221.919 -73.04)" fill="gray"/>
    <path id="Path_367" data-name="Path 367" d="M436.769,141.712h1.242a.332.332,0,1,1,0,.665h-1.242v1.947h1.672a.332.332,0,1,1,0,.665h-2.007a.333.333,0,0,1-.335-.332v-5.223a.333.333,0,0,1,.335-.332h2.007a.332.332,0,1,1,0,.665h-1.672Z" transform="translate(-227.715 -73.05)" fill="gray"/>
    <path id="Path_368" data-name="Path 368" d="M452.716,144.367h2.294a.333.333,0,0,1,.334.332.284.284,0,0,1-.079.254.288.288,0,0,1-.255.079h-2.676c-.191,0-.335-.1-.335-.38a1.94,1.94,0,0,1,.573-1.425c.812-.807,2.15-1.14,2.15-2.184s-.335-1.235-1.051-1.235a.938.938,0,0,0-.956.76.284.284,0,0,1-.1.22.326.326,0,0,1-.521-.22,1.42,1.42,0,0,1,.435-1.074,1.439,1.439,0,0,1,1.094-.4,1.627,1.627,0,0,1,1.768,1.852,1.992,1.992,0,0,1-.956,1.662c-.669.475-1.625.76-1.816,1.709" transform="translate(-236.017 -73.046)" fill="gray"/>
    <path id="Path_369" data-name="Path 369" d="M466.518,141.992c0,1.235-.287,2.992-1.959,2.992s-1.959-1.757-1.959-3.039.382-2.944,1.959-2.944,1.959,1.662,1.959,2.992m-.669.19c0-.95-.1-2.517-1.338-2.517s-1.242,1.092-1.242,2.232,0,2.374,1.338,2.374,1.242-1.235,1.242-2.089" transform="translate(-241.553 -72.997)" fill="gray"/>
    <path id="Path_370" data-name="Path 370" d="M478.418,141.992c0,1.235-.287,2.992-1.959,2.992s-1.959-1.757-1.959-3.039.382-2.944,1.959-2.944,1.959,1.662,1.959,2.992m-.669.19c0-.95-.1-2.517-1.338-2.517s-1.242,1.092-1.242,2.232,0,2.374,1.338,2.374,1.242-1.235,1.242-2.089" transform="translate(-247.767 -72.997)" fill="gray"/>
    <path id="Path_371" data-name="Path 371" d="M488.3,139.48v5.128c0,.237-.1.427-.335.427a.389.389,0,0,1-.382-.427v-1.092h-2.15c-.334,0-.334-.19-.334-.332s1.72-2.707,2.532-3.894a.335.335,0,0,1,.287-.19c.287,0,.382.142.382.38m-.669,3.419v-2.374L486.1,142.9Z" transform="translate(-253.302 -73.05)" fill="gray"/>
    <path id="Path_372" data-name="Path 372" d="M152.012,81.344a.285.285,0,0,1,.165-.207.288.288,0,0,1,.265.017c1.577.807,2.819,1.519,4.492,2.469a.294.294,0,1,1-.143.57h-5.208a.332.332,0,0,1-.191-.38.286.286,0,0,1,.287-.237h3.966l-3.488-1.9a.284.284,0,0,1-.143-.332" transform="translate(-79.046 -42.597)" fill="gray"/>
    <path id="Path_373" data-name="Path 373" d="M155.471,73.268a.285.285,0,0,1,.148-.18.288.288,0,0,1,.234-.01l4.635,1.852a.308.308,0,0,1,.167.4.311.311,0,0,1-.406.166l-4.635-1.852a.284.284,0,0,1-.143-.38" transform="translate(-81.167 -38.367)" fill="gray"/>
    <path id="Path_374" data-name="Path 374" d="M160.846,60.189a.287.287,0,0,1,.43-.142l4.3,2.422a.331.331,0,0,1,.1.427.287.287,0,0,1-.334.142l-3.966-.332,3.106,1.757a.3.3,0,0,1,.119.4.3.3,0,0,1-.406.119l-4.3-2.422a.331.331,0,0,1-.075-.365.335.335,0,0,1,.314-.2l3.966.38-3.106-1.757a.284.284,0,0,1-.1-.427" transform="translate(-83.436 -31.509)" fill="gray"/>
    <path id="Path_375" data-name="Path 375" d="M169.175,47.865a.237.237,0,0,1,.048.38l-.765.95,3.727,2.944a.3.3,0,0,1,.048.427.307.307,0,0,1-.43.047l-3.727-2.944-.765.95a.288.288,0,0,1-.336-.011.284.284,0,0,1-.094-.321l1.959-2.422a.24.24,0,0,1,.382-.047" transform="translate(-87.131 -25.073)" fill="gray"/>
    <path id="Path_376" data-name="Path 376" d="M181.983,43.892a.284.284,0,0,1,.1.475c-.239.19-.43.047-.765-.19l-.335-.237-1.147,1.045c.191.332.573.855.334,1.092a.288.288,0,0,1-.478-.095c-1.051-1.8-1.625-2.991-2.533-4.511a.331.331,0,0,1,.048-.38.288.288,0,0,1,.382-.047l4.4,2.8m-1.577-.285-2.1-1.33,1.195,2.184Z" transform="translate(-92.484 -21.527)" fill="gray"/>
    <path id="Path_377" data-name="Path 377" d="M190.088,33.945c.669,1,1.577,2.232.43,3.039s-1.911-.142-2.771-1.425-1.672-2.327-.382-3.229a1.295,1.295,0,0,1,1.864.38.284.284,0,0,1-.1.427.288.288,0,0,1-.43-.095.671.671,0,0,0-1-.237c-.812.57-.1,1.472.526,2.374s1.147,1.757,1.911,1.235.143-1.187-.382-1.947l-.287.19c-.239.19-.43.237-.621.047s-.048-.38.239-.57l.573-.38a.336.336,0,0,1,.43.095" transform="translate(-97.484 -16.851)" fill="gray"/>
    <path id="Path_378" data-name="Path 378" d="M199.076,27.959l1.051-.522a.321.321,0,0,1,.43.142.318.318,0,0,1-.143.427l-1.051.522.812,1.662,1.434-.712a.322.322,0,0,1,.43.142.318.318,0,0,1-.143.427l-1.72.807a.287.287,0,0,1-.43-.142l-2.2-4.416a.284.284,0,0,1,.143-.427l1.72-.807a.322.322,0,0,1,.43.142.318.318,0,0,1-.143.427l-1.434.712.812,1.662" transform="translate(-103.127 -13.144)" fill="gray"/>
    <path id="Path_379" data-name="Path 379" d="M219.334,18.981a.288.288,0,0,1,.249.026.285.285,0,0,1,.133.211l.526,2.469.526,2.374a.319.319,0,0,1-.621.142l-.526-2.374-.526-2.469a.283.283,0,0,1,.049-.216.287.287,0,0,1,.19-.116" transform="translate(-114.401 -9.959)" fill="gray"/>
    <path id="Path_380" data-name="Path 380" d="M231.333,17a.288.288,0,0,1,.234.065.284.284,0,0,1,.1.22l.382,4.938a.333.333,0,0,1-.287.332.287.287,0,0,1-.335-.19l-1.911-3.466.287,3.514a.312.312,0,0,1-.621.047l-.382-4.938a.335.335,0,0,1,.621-.142l1.959,3.466-.287-3.514a.284.284,0,0,1,.065-.233.288.288,0,0,1,.222-.1" transform="translate(-119.471 -8.923)" fill="gray"/>
    <path id="Path_381" data-name="Path 381" d="M245.063,17.137a.287.287,0,0,1,.246.113.283.283,0,0,1,.041.266c-.526,1.662-1,3.039-1.625,4.843a.312.312,0,0,1-.621-.047L242.2,17.28a.332.332,0,0,1,.335-.38.286.286,0,0,1,.287.237l.717,3.894,1.242-3.751a.287.287,0,0,1,.287-.19" transform="translate(-126.464 -8.875)" fill="gray"/>
    <path id="Path_382" data-name="Path 382" d="M255.277,18.695a.287.287,0,0,1,.19.116.284.284,0,0,1,.049.216l-1,4.891a.319.319,0,0,1-.621-.142l1-4.843a.285.285,0,0,1,.117-.189.288.288,0,0,1,.218-.049" transform="translate(-132.568 -9.815)" fill="gray"/>
    <path id="Path_383" data-name="Path 383" d="M267.614,22.027a.239.239,0,0,1-.334.142l-1.195-.38-1.529,4.463a.3.3,0,0,1-.573-.19l1.529-4.463-1.195-.38a.284.284,0,0,1-.114-.337.287.287,0,0,1,.306-.185l2.963,1a.237.237,0,0,1,.143.332" transform="translate(-137.834 -10.868)" fill="gray"/>
    <path id="Path_384" data-name="Path 384" d="M274.555,31.975a.285.285,0,0,1-.147.24.288.288,0,0,1-.283,0c-.287-.142-.191-.38-.1-.76l.1-.427-1.386-.712c-.287.285-.621.855-.908.712a.284.284,0,0,1-.048-.475c1.338-1.567,2.294-2.564,3.393-3.846a.336.336,0,0,1,.382-.047.284.284,0,0,1,.143.332c-.335,1.519-.812,3.419-1.147,5.033m-.287-1.567.526-2.422-1.672,1.852Z" transform="translate(-141.859 -13.979)" fill="gray"/>
    <path id="Path_385" data-name="Path 385" d="M286.046,37.16a.284.284,0,0,1,.1.427c-.478.617-1.147,1.187-2.1.522s-.43-1.994.382-3.086,1.816-2.232,2.915-1.425a1.277,1.277,0,0,1,.335,1.852.336.336,0,0,1-.413.015.331.331,0,0,1-.113-.4.615.615,0,0,0-.191-1c-.717-.522-1.338.285-2.055,1.282s-1.242,1.709-.526,2.232.812.19,1.242-.38a.288.288,0,0,1,.43-.047" transform="translate(-148.047 -17.502)" fill="gray"/>
    <path id="Path_386" data-name="Path 386" d="M295.817,40.793a.284.284,0,0,1,.048.427l-3.44,3.656a.288.288,0,0,1-.43,0,.284.284,0,0,1,0-.427l3.393-3.656a.288.288,0,0,1,.43,0" transform="translate(-152.418 -21.372)" fill="gray"/>
    <path id="Path_387" data-name="Path 387" d="M303,48.753c.956,1.14-.287,2.232-1.195,2.992s-2.2,1.8-3.2.617.287-2.232,1.147-2.944,2.246-1.8,3.2-.665m-1.577,2.517c.526-.427,1.768-1.33,1.1-2.137s-1.72.19-2.389.76-1.577,1.377-1.051,2.042,1.72-.19,2.294-.712" transform="translate(-155.728 -25.344)" fill="gray"/>
    <path id="Path_388" data-name="Path 388" d="M311.02,60.93a.284.284,0,0,1-.1.427l-4.3,2.517a.336.336,0,0,1-.43-.095.284.284,0,0,1,.048-.38l2.294-3.229-3.058,1.757a.313.313,0,0,1-.43-.095.308.308,0,0,1,.1-.427l4.3-2.517a.336.336,0,0,1,.347.114.331.331,0,0,1,.036.361l-2.294,3.276,3.058-1.8a.288.288,0,0,1,.43.095" transform="translate(-159.259 -30.92)" fill="gray"/>
    <path id="Path_389" data-name="Path 389" d="M314.041,73.307l.43,1.092a.285.285,0,0,1-.191.38.287.287,0,0,1-.382-.142l-.43-1.092-1.72.665.573,1.472a.283.283,0,0,1-.01.232.313.313,0,0,1-.563.005l-.669-1.757a.283.283,0,0,1,.01-.232.286.286,0,0,1,.181-.147l4.635-1.8a.288.288,0,0,1,.234.01.285.285,0,0,1,.148.18L317,73.925a.308.308,0,0,1-.167.4.311.311,0,0,1-.406-.166l-.621-1.567-1.768.665" transform="translate(-162.423 -37.789)" fill="gray"/>
    <path id="Path_390" data-name="Path 390" d="M317.706,86.753a1.769,1.769,0,0,1-1.051.712,1.393,1.393,0,0,1-1.087-.154,1.378,1.378,0,0,1-.633-.891,1.159,1.159,0,0,1,.621-1.519.288.288,0,0,1,.234.01.285.285,0,0,1,.148.18c.143.522-.669.237-.43,1.187s.621.617,1.1.522.765-1.235,1.051-1.9a1.575,1.575,0,0,1,1.1-.855,1.393,1.393,0,0,1,1.087.154,1.377,1.377,0,0,1,.633.891,1.128,1.128,0,0,1-.669,1.425.287.287,0,0,1-.382-.19c-.1-.427.621-.237.43-1.14a.713.713,0,0,0-.357-.48.721.721,0,0,0-.6-.042c-.908.19-.717,1.33-1.195,2.042" transform="translate(-164.416 -44.112)" fill="gray"/>
    <path id="Path_391" data-name="Path 391" d="M133.017,52.064a.715.715,0,0,1-.717-.712v-.617a51.006,51.006,0,0,1,101.54-6.41.723.723,0,0,1-1.434.19,49.57,49.57,0,0,0-98.721,6.268v.57a.715.715,0,0,1-.717.712Z" transform="translate(-69.082 -0.117)" fill="gray"/>
    <path id="Path_392" data-name="Path 392" d="M235.467,69.268a.715.715,0,0,1-.717-.665,30.123,30.123,0,0,0-59.921-.142.72.72,0,0,1-1.434-.142,31.557,31.557,0,0,1,62.788.142.713.713,0,0,1-.621.76h-.048" transform="translate(-90.539 -21.024)" fill="gray"/>
    <path id="Path_393" data-name="Path 393" d="M113.864,88.165c4.157,4.226,2.915,9.782-1.816,13.865-2.963,2.564-6.881,3.514-8.505,2.469s-.478-3.8.382-5.413l3.44-6.173c-7.168.237-13.809,1.8-20.929,3.134-18.875,3.561-37.94,8.642-57.2,9.5-9.366.427-29.1.95-29.339-12.583,0-.95,2.1-1.235,2.15-.142.1,6.79,6.4,9.5,12.28,10.541,7.789,1.377,15.912.807,23.748.047,9.413-.9,18.54-2.9,27.81-4.558s16.724-3.514,25.373-5.081c5.782-1.045,11.134-2.374,17.011-2.422,1.242,0,2.867.807,1.481,3.324l-4.253,7.645c-.191.332-1.147,2.089-.048,2.089,2.2,0,5.591-3.561,7.359-7.218s1.864-7.028.669-8.832c-.239-.427.191-.332.382-.142M125,89.019a2.2,2.2,0,0,0,2.15-1.614,1.419,1.419,0,0,0-.391-1.191,1.439,1.439,0,0,0-1.186-.424,2.277,2.277,0,0,0-2.2,1.614A1.476,1.476,0,0,0,125,89.019m108.851,11.159A10.7,10.7,0,0,0,231.221,97a16.878,16.878,0,0,0-3.345-2.184,29.054,29.054,0,0,0-3.584-1.519,67.682,67.682,0,0,0-15-2.944,147.523,147.523,0,0,0-15.2-.617c-5.065.047-10.13.285-15.147.665a256.774,256.774,0,0,0-30.008,4.036c-4.97,1-9.891,2.137-14.717,3.561-2.437.712-4.826,1.472-7.168,2.374a46.965,46.965,0,0,0-6.833,3.181,4.127,4.127,0,0,1-1.386.475c-.478,0-.526-.475.239-1.8l4.2-7.6c1.386-2.517-.191-3.371-1.481-3.371l-4.683,8.4c-2.055,3.656-.86,5.176.43,5.176a5.9,5.9,0,0,0,2.771-.807h.1a46.448,46.448,0,0,1,6.833-3.039c2.341-.855,4.778-1.614,7.167-2.279,4.826-1.33,9.748-2.422,14.717-3.324a255.629,255.629,0,0,1,29.913-3.656c5.017-.332,10.035-.475,15.052-.475a145.735,145.735,0,0,1,15,.76,64.2,64.2,0,0,1,14.526,3.039,27.18,27.18,0,0,1,3.345,1.472,14.964,14.964,0,0,1,2.963,1.947,8.7,8.7,0,0,1,2.1,2.612,6.519,6.519,0,0,1,.717,3.134h0a1.041,1.041,0,0,0,.413,1.1,1.057,1.057,0,0,0,1.177.027,1.042,1.042,0,0,0,.464-1.075,8.55,8.55,0,0,0-.956-4.084" transform="translate(0.052 -45.049)" fill="gray"/>
    <path id="Path_394" data-name="Path 394" d="M114.216,87.612c4.157,4.226,2.915,9.782-1.816,13.865-2.963,2.564-6.881,3.514-8.505,2.469s-.478-3.8.382-5.413l3.44-6.173c-7.168.237-13.809,1.8-20.929,3.134-18.875,3.561-37.94,8.642-57.2,9.5-9.366.38-29.1.95-29.291-12.583,0-.95,2.1-1.235,2.15-.142.1,6.79,6.4,9.5,12.28,10.541,7.789,1.377,15.912.807,23.748.047,9.413-.9,18.54-2.9,27.81-4.558s16.724-3.514,25.373-5.081c5.782-1.045,11.134-2.374,17.011-2.422,1.242,0,2.867.807,1.481,3.324l-4.348,7.6c-.191.332-1.147,2.089-.048,2.089,2.2,0,5.591-3.561,7.359-7.218s1.864-7.028.669-8.832c-.239-.427.191-.332.382-.142m11.181.807A2.2,2.2,0,0,0,127.5,86.8a1.419,1.419,0,0,0-.391-1.191,1.439,1.439,0,0,0-1.186-.424,2.277,2.277,0,0,0-2.2,1.614,1.476,1.476,0,0,0,1.625,1.614M234.2,99.578a10.7,10.7,0,0,0-2.628-3.181,16.878,16.878,0,0,0-3.345-2.184,29.105,29.105,0,0,0-3.584-1.519,67.683,67.683,0,0,0-15-2.944,147.506,147.506,0,0,0-15.2-.617c-5.065.048-10.082.285-15.147.665a256.775,256.775,0,0,0-30.008,4.036c-4.97,1-9.891,2.137-14.717,3.561-2.437.712-4.826,1.472-7.168,2.374a47.007,47.007,0,0,0-6.833,3.181,4.127,4.127,0,0,1-1.386.475c-.478,0-.526-.475.239-1.8l4.2-7.6c1.386-2.517-.239-3.371-1.481-3.371l-4.683,8.4c-2.055,3.656-.86,5.176.43,5.176a5.9,5.9,0,0,0,2.771-.807h.1a46.449,46.449,0,0,1,6.833-3.039q3.512-1.282,7.168-2.279c4.826-1.33,9.748-2.422,14.717-3.324a255.633,255.633,0,0,1,29.913-3.656c5.017-.332,10.035-.475,15.052-.475a145.788,145.788,0,0,1,15,.807A64.2,64.2,0,0,1,223.975,94.5a27.18,27.18,0,0,1,3.345,1.472,14.965,14.965,0,0,1,2.963,1.947,8.7,8.7,0,0,1,2.1,2.612,6.519,6.519,0,0,1,.717,3.134h0a1.041,1.041,0,0,0,.413,1.1,1.057,1.057,0,0,0,1.177.027,1.042,1.042,0,0,0,.464-1.075,8.551,8.551,0,0,0-.956-4.084" transform="translate(-0.157 -44.734)" fill="gray"/>
  </g>
</svg>
